<svg width="2176" height="640" viewBox="0 0 2176 640" fill="none" xmlns="http://www.w3.org/2000/svg">
<path d="M405.414 0H42.6008C19.0808 0 0.0118152 19.175 0.0118152 42.828V378.994V450.502V507.708H0.0828296C-0.0611704 509.923 0.0118296 512.212 0.0828296 514.502C2.78383 585.154 62.7308 640 132.987 640H216.972C240.492 640 259.561 620.825 259.561 597.172V450.505H405.411C428.932 450.505 448 431.329 448 407.677V42.828C448.003 19.175 428.935 0 405.414 0ZM188.451 568.492H122.128C107.279 568.492 92.9958 561.6 84.4858 549.363C51.4068 501.791 84.7368 450.505 129.783 450.505H188.448L188.451 568.492ZM259.564 378.994H184.899H129.786C108.668 378.994 88.7548 384.071 71.1208 393.154V71.508H376.894V189.495H188.451V261.003H376.894V378.991L259.564 378.994Z" fill="white"/>
<path d="M883.02 339.24C883.25 275.759 929.87 231.129 993.75 231.129C1052.92 231.129 1097.98 269.478 1097.98 332.524C1097.98 340.109 1097.3 347.907 1095.96 356.139H940.4C944.66 380.623 970.44 397.736 997.78 397.736C1019.08 397.736 1037.46 388.204 1051.35 368.488L1092.14 397.953C1071.97 430.452 1034.32 448 996.44 448C927.41 448 883.02 399.904 883.02 339.24ZM1044.41 318.873C1041.5 295.692 1021.77 277.925 994.42 277.925C965.96 277.925 944.44 295.258 941.3 318.873H1044.41Z" fill="white"/>
<path d="M1247.74 339.457C1247.74 278.145 1296.83 231.129 1362.73 231.129C1428.85 231.129 1477.71 278.145 1477.71 339.457C1477.71 400.987 1428.85 447.785 1362.73 447.785C1296.83 447.785 1247.74 400.987 1247.74 339.457ZM1362.73 397.519C1396.57 397.519 1420.55 372.821 1420.55 339.457C1420.55 306.307 1396.57 281.61 1362.73 281.61C1329.1 281.61 1304.9 306.307 1304.9 339.457C1304.9 372.821 1329.11 397.519 1362.73 397.519Z" fill="white"/>
<path d="M749.42 235.465V281.594H689.6V443.448H631.969V281.594H608V235.465H632.431V152.218C632.431 138.834 643.662 128.008 657.508 128.008H743.6V181.721H688.031V235.465H749.42Z" fill="white"/>
<path d="M1250.95 234.874V188.744H1191.14V128.012H1133.51V188.744H1109.54V234.874H1133.97V419.243C1133.97 432.626 1145.2 443.452 1159.05 443.452H1245.14V389.739H1189.57V234.874H1250.95Z" fill="white"/>
<path d="M854.14 128H796.76V443.45H854.14V128Z" fill="white"/>
<path d="M2151.12 127.785H2120.82H2065.65V181.118H2120.82V234.452H2176V181.116V151.83C2176 138.552 2164.86 127.785 2151.12 127.785Z" fill="white"/>
<path d="M1641.88 443.601C1641.88 443.601 1603.46 452.062 1570.54 443.601C1542.2 436.319 1529.44 405.677 1529.44 386.507C1529.44 367.961 1537.18 352.056 1554.13 343.165C1571.08 334.275 1593.71 335.247 1593.71 335.247H1666.55V320.661C1666.55 305.241 1661.59 292.947 1651.66 283.779C1641.73 274.819 1628.82 270.235 1613.12 270.235C1589.88 270.235 1570.22 280.028 1554.13 299.824L1533.67 279.403C1542.21 267.318 1553.74 257.524 1568.23 250.231C1582.73 242.938 1597.63 239.396 1612.93 239.396C1638.75 239.396 1659.4 246.48 1674.9 260.65C1690.19 275.027 1697.94 293.989 1697.94 317.952V443.601H1666.55V433.472C1666.55 433.472 1659.73 439.389 1641.88 443.601ZM1600.19 360.367C1600.19 360.367 1556.87 358.966 1556.87 386.507C1560.56 416.929 1586.31 416.929 1586.31 416.929C1586.31 416.929 1600.19 420.006 1620.21 416.929C1649.04 412.496 1666.55 402.76 1666.55 402.76C1666.55 402.76 1666.55 375.578 1666.55 360.367H1638.78H1600.19Z" fill="#5FE0B7"/>
<path d="M1818.76 447.768C1765.13 448.81 1721.83 402.135 1722.63 343.165C1722.63 313.368 1731.76 288.572 1750.24 268.776C1768.51 249.189 1791.35 239.396 1818.76 239.396C1851.54 239.396 1877.16 253.982 1892.25 276.486V127.785H1923.83V443.601H1892.25V411.095C1877.16 433.599 1851.54 447.768 1818.76 447.768ZM1821.94 269.401C1802.28 269.401 1785.99 276.486 1773.28 290.447C1760.37 304.616 1754.01 322.12 1754.01 343.165C1754.01 364.211 1760.37 381.714 1773.28 396.092C1786.19 410.469 1802.28 417.762 1821.94 417.762C1842 417.762 1858.88 410.469 1872.39 396.092C1885.9 381.714 1892.65 364.002 1892.65 343.165C1892.65 322.328 1885.9 304.825 1872.59 290.655C1859.08 276.486 1842.2 269.401 1821.94 269.401Z" fill="#5FE0B7"/>
<path d="M1949.92 402.76L1974.15 384.215C1985.27 405.052 2004.74 417.971 2031.15 417.971C2056.38 417.971 2073.66 406.719 2073.66 389.841C2073.66 380.881 2070.48 374.421 2063.93 370.254C2057.37 366.086 2045.65 361.919 2028.37 357.96C2010.7 353.792 1998.78 350.041 1986.46 343.374C1980.31 340.04 1975.14 336.289 1971.37 332.121C1963.62 323.995 1958.66 311.909 1958.66 296.907C1958.66 279.82 1965.41 265.859 1979.11 255.232C1992.62 244.605 2009.5 239.396 2029.56 239.396C2045.85 239.396 2060.35 242.938 2072.87 250.023C2085.38 257.107 2094.52 265.859 2100.67 276.486L2079.02 295.24C2067.7 277.945 2051.21 269.193 2029.56 269.193C2005.53 269.193 1989.84 279.82 1989.84 296.281C1989.84 305.241 1993.22 311.701 2000.17 315.66C2006.92 319.827 2019.44 324.203 2037.51 328.787C2059.76 334.414 2074.06 340.04 2086.77 349.208C2099.48 358.585 2105.44 371.712 2105.44 389.841C2105.44 407.135 2098.29 421.096 2083.79 431.723C2069.29 442.35 2051.81 447.768 2031.15 447.768C1992.42 447.768 1964.02 430.89 1949.92 402.76Z" fill="#5FE0B7"/>
</svg>

